<mxfile host="app.diagrams.net" modified="2022-01-25T00:10:09.407Z" agent="5.0 (Windows NT 10.0; Win64; x64) AppleWebKit/537.36 (KHTML, like Gecko) Chrome/97.0.4692.71 Safari/537.36" etag="DIf3PsI-2tBGhGB60vVg" version="16.4.6" type="github">
  <diagram id="Q5RIAD2cD9YBgS0GePl_" name="Page-1">
    <mxGraphModel dx="868" dy="482" grid="1" gridSize="10" guides="1" tooltips="1" connect="1" arrows="1" fold="1" page="1" pageScale="1" pageWidth="850" pageHeight="1100" math="0" shadow="0">
      <root>
        <mxCell id="0" />
        <mxCell id="1" parent="0" />
        <mxCell id="VkAZfQTMKmoaj7vAUW4v-1" value="" style="outlineConnect=0;dashed=0;verticalLabelPosition=bottom;verticalAlign=top;align=center;html=1;shape=mxgraph.aws3.management_console;fillColor=#F58534;gradientColor=none;" vertex="1" parent="1">
          <mxGeometry x="100" y="340" width="63" height="63" as="geometry" />
        </mxCell>
        <mxCell id="VkAZfQTMKmoaj7vAUW4v-2" value="" style="dashed=0;outlineConnect=0;html=1;align=center;labelPosition=center;verticalLabelPosition=bottom;verticalAlign=top;shape=mxgraph.weblogos.github" vertex="1" parent="1">
          <mxGeometry x="94" y="140" width="75" height="75" as="geometry" />
        </mxCell>
        <mxCell id="VkAZfQTMKmoaj7vAUW4v-3" value="" style="outlineConnect=0;dashed=0;verticalLabelPosition=bottom;verticalAlign=top;align=center;html=1;shape=mxgraph.aws3.ecr;fillColor=#F58534;gradientColor=none;" vertex="1" parent="1">
          <mxGeometry x="600" y="130" width="69" height="72" as="geometry" />
        </mxCell>
        <mxCell id="VkAZfQTMKmoaj7vAUW4v-25" value="" style="edgeStyle=orthogonalEdgeStyle;rounded=0;orthogonalLoop=1;jettySize=auto;html=1;fontSize=14;dashed=1;strokeWidth=4;strokeColor=#999999;" edge="1" parent="1" source="VkAZfQTMKmoaj7vAUW4v-5" target="VkAZfQTMKmoaj7vAUW4v-23">
          <mxGeometry relative="1" as="geometry" />
        </mxCell>
        <mxCell id="VkAZfQTMKmoaj7vAUW4v-5" value="" style="sketch=0;points=[[0,0,0],[0.25,0,0],[0.5,0,0],[0.75,0,0],[1,0,0],[0,1,0],[0.25,1,0],[0.5,1,0],[0.75,1,0],[1,1,0],[0,0.25,0],[0,0.5,0],[0,0.75,0],[1,0.25,0],[1,0.5,0],[1,0.75,0]];outlineConnect=0;fontColor=#232F3E;gradientColor=#F78E04;gradientDirection=north;fillColor=#D05C17;strokeColor=#ffffff;dashed=0;verticalLabelPosition=bottom;verticalAlign=top;align=center;html=1;fontSize=12;fontStyle=0;aspect=fixed;shape=mxgraph.aws4.resourceIcon;resIcon=mxgraph.aws4.eks;" vertex="1" parent="1">
          <mxGeometry x="606" y="325" width="78" height="78" as="geometry" />
        </mxCell>
        <mxCell id="VkAZfQTMKmoaj7vAUW4v-6" value="" style="sketch=0;aspect=fixed;html=1;points=[];align=center;image;fontSize=12;image=img/lib/mscae/Docker.svg;" vertex="1" parent="1">
          <mxGeometry x="365" y="119" width="50" height="41" as="geometry" />
        </mxCell>
        <mxCell id="VkAZfQTMKmoaj7vAUW4v-11" value="" style="endArrow=classic;html=1;rounded=0;exitX=0.5;exitY=0;exitDx=0;exitDy=0;exitPerimeter=0;" edge="1" parent="1" source="VkAZfQTMKmoaj7vAUW4v-1">
          <mxGeometry width="50" height="50" relative="1" as="geometry">
            <mxPoint x="130" y="320" as="sourcePoint" />
            <mxPoint x="130" y="220" as="targetPoint" />
          </mxGeometry>
        </mxCell>
        <mxCell id="VkAZfQTMKmoaj7vAUW4v-14" value="" style="endArrow=classic;html=1;rounded=0;entryX=0;entryY=0.5;entryDx=0;entryDy=0;entryPerimeter=0;" edge="1" parent="1" target="VkAZfQTMKmoaj7vAUW4v-3">
          <mxGeometry width="50" height="50" relative="1" as="geometry">
            <mxPoint x="180" y="170" as="sourcePoint" />
            <mxPoint x="230" y="120" as="targetPoint" />
          </mxGeometry>
        </mxCell>
        <mxCell id="VkAZfQTMKmoaj7vAUW4v-17" value="&lt;b&gt;&lt;font style=&quot;font-size: 14px&quot;&gt;Commit/Push&lt;br&gt;Code&lt;/font&gt;&lt;/b&gt;" style="text;html=1;resizable=0;autosize=1;align=center;verticalAlign=middle;points=[];fillColor=none;strokeColor=none;rounded=0;" vertex="1" parent="1">
          <mxGeometry x="20" y="290" width="110" height="40" as="geometry" />
        </mxCell>
        <mxCell id="VkAZfQTMKmoaj7vAUW4v-18" value="&lt;b&gt;Developer&lt;/b&gt;" style="text;html=1;resizable=0;autosize=1;align=center;verticalAlign=middle;points=[];fillColor=none;strokeColor=none;rounded=0;fontSize=14;" vertex="1" parent="1">
          <mxGeometry x="94" y="410" width="80" height="20" as="geometry" />
        </mxCell>
        <mxCell id="VkAZfQTMKmoaj7vAUW4v-19" value="&lt;b&gt;CI/CD Tool&lt;/b&gt;" style="text;html=1;resizable=0;autosize=1;align=center;verticalAlign=middle;points=[];fillColor=none;strokeColor=none;rounded=0;fontSize=14;" vertex="1" parent="1">
          <mxGeometry x="163" y="140" width="90" height="20" as="geometry" />
        </mxCell>
        <mxCell id="VkAZfQTMKmoaj7vAUW4v-20" value="&lt;b&gt;Github Actions&lt;/b&gt;" style="text;html=1;resizable=0;autosize=1;align=center;verticalAlign=middle;points=[];fillColor=none;strokeColor=none;rounded=0;fontSize=14;" vertex="1" parent="1">
          <mxGeometry x="163" y="182" width="120" height="20" as="geometry" />
        </mxCell>
        <mxCell id="VkAZfQTMKmoaj7vAUW4v-21" value="&lt;b&gt;Docker build&lt;br&gt;Docker push&lt;/b&gt;" style="text;html=1;resizable=0;autosize=1;align=center;verticalAlign=middle;points=[];fillColor=none;strokeColor=none;rounded=0;fontSize=14;" vertex="1" parent="1">
          <mxGeometry x="340" y="172" width="100" height="40" as="geometry" />
        </mxCell>
        <mxCell id="VkAZfQTMKmoaj7vAUW4v-22" value="&lt;b&gt;ECR&lt;/b&gt;" style="text;html=1;resizable=0;autosize=1;align=center;verticalAlign=middle;points=[];fillColor=none;strokeColor=none;rounded=0;fontSize=14;" vertex="1" parent="1">
          <mxGeometry x="669" y="152" width="50" height="20" as="geometry" />
        </mxCell>
        <mxCell id="VkAZfQTMKmoaj7vAUW4v-23" value="" style="rounded=1;whiteSpace=wrap;html=1;fontSize=14;fillColor=none;dashed=1;" vertex="1" parent="1">
          <mxGeometry x="560" y="109.5" width="170" height="120.5" as="geometry" />
        </mxCell>
        <mxCell id="VkAZfQTMKmoaj7vAUW4v-26" value="&lt;b&gt;EKS&lt;/b&gt;" style="text;html=1;resizable=0;autosize=1;align=center;verticalAlign=middle;points=[];fillColor=none;strokeColor=none;rounded=0;dashed=1;fontSize=14;" vertex="1" parent="1">
          <mxGeometry x="700" y="354" width="40" height="20" as="geometry" />
        </mxCell>
      </root>
    </mxGraphModel>
  </diagram>
</mxfile>
